<?xml version="1.0" standalone="no"?>
<!DOCTYPE svg PUBLIC "-//W3C//DTD SVG 20010904//EN"
 "http://www.w3.org/TR/2001/REC-SVG-20010904/DTD/svg10.dtd">
<svg version="1.0" xmlns="http://www.w3.org/2000/svg"
 width="512.000000pt" height="512.000000pt" viewBox="0 0 512.000000 512.000000"
 preserveAspectRatio="xMidYMid meet">

<g transform="translate(0.000000,512.000000) scale(0.100000,-0.100000)"
fill="#000000" stroke="none">
<path d="M1644 5110 c-446 -65 -676 -579 -428 -956 68 -103 221 -233 374 -318
l75 -41 -795 -5 c-873 -5 -824 -2 -855 -66 -13 -27 -15 -104 -15 -496 0 -347
3 -469 13 -487 22 -44 60 -63 136 -69 l71 -5 0 -1281 c0 -1200 1 -1283 18
-1316 10 -20 32 -42 52 -52 33 -17 162 -18 2270 -18 2108 0 2237 1 2270 18 20
10 42 32 52 52 17 33 18 116 18 1316 l0 1281 71 5 c76 6 114 25 136 69 10 18
13 140 13 487 0 392 -2 469 -15 496 -31 64 18 61 -855 66 l-795 5 75 41 c153
85 306 215 374 318 186 283 107 673 -175 860 -122 80 -288 117 -432 96 -214
-31 -366 -140 -524 -375 -47 -71 -150 -273 -184 -362 -13 -35 -26 -63 -29 -63
-3 0 -16 28 -29 63 -34 89 -137 291 -184 362 -155 231 -309 343 -514 374 -79
12 -112 12 -189 1z m178 -221 c183 -38 353 -237 492 -572 63 -153 136 -428
136 -514 0 -40 -311 28 -517 113 -199 82 -394 203 -479 297 -130 144 -151 345
-53 498 91 143 256 212 421 178z m1640 0 c106 -23 199 -87 257 -178 72 -112
81 -262 24 -384 -69 -146 -266 -291 -556 -411 -206 -85 -517 -153 -517 -113 0
42 37 218 66 314 80 266 199 492 335 637 110 119 247 165 391 135z m-1462
-1659 l0 -330 -890 0 -890 0 0 330 0 330 890 0 890 0 0 -330z m890 0 l0 -330
-330 0 -330 0 0 330 0 330 330 0 330 0 0 -330z m2010 0 l0 -330 -890 0 -890 0
0 330 0 330 890 0 890 0 0 -330z m-2900 -1780 l0 -1220 -775 0 -775 0 0 1220
0 1220 775 0 775 0 0 -1220z m890 0 l0 -1220 -330 0 -330 0 0 1220 0 1220 330
0 330 0 0 -1220z m1780 0 l0 -1220 -775 0 -775 0 0 1220 0 1220 775 0 775 0 0
-1220z"/>
</g>
</svg>
