<svg id="Layer_1" data-name="Layer 1" xmlns="http://www.w3.org/2000/svg" viewBox="0 0 353.8 353"><path d="M236.19,80.07c-2,.32-8.64,1.48-14.76,2.64-54.91,10.84-102,47.91-125.85,99.08-11.91,25.48-17.18,52.33-16.13,81.39,3.27,83.29,62.4,151.31,145.67,167.64,14.87,2.94,48.91,2.63,64.62-.53,37-7.48,67.88-24.32,94.13-51.49a186.92,186.92,0,0,0,31.2-43.8c9-17.9,16-43.07,17.71-63.39.63-7.69.52-8.74-1.58-11.37a6.51,6.51,0,0,0-5.7-2.85c-5.79,0-7.48,3.06-8.85,16-2.11,20.32-7.69,38.54-17.6,57.49-8,15.27-16.13,26.32-29,39.17-23,22.95-50,37.48-82.22,44.33-15.07,3.26-44.9,3.47-60.61.53A161,161,0,0,1,111.7,327.41a157.13,157.13,0,0,1-13.8-39.9c-3.38-15.59-3.38-47,.1-62.76C114.34,148.2,179.06,95.24,256.22,95.24c29.09,0,59.87,8.31,82.53,22.32l3.9,2.53-8.53,10.31c-4.64,5.59-8.33,10.53-8,10.75.43.42,43.33-3.48,47.75-4.32l2.11-.42-2.32-23c-1.37-12.63-2.53-24.11-2.74-25.37-.31-2.11-1.68-.74-9.17,8.52l-8.85,11.06-5-3c-8-5-26.24-13.27-36.36-16.64-18-6-28.57-7.58-51.12-8C249.16,79.76,238.19,79.86,236.19,80.07Z" transform="translate(-79.32 -79.85)"/><path d="M207,168.42c-3.23,3.54-34.38,49.81-35.32,52.31-.52,1.45-.73,29.48-.63,62.93l.31,60.22,2.51,2c2.29,1.87,5.21,2,80.43,2,75.64,0,78.14-.11,80-2,1.15-1.15,2.29-4.06,2.71-6.57s.52-30.31.31-61.78L337,220.2l-16.57-24.48c-9.06-13.44-17.5-25.53-18.65-26.88l-2.08-2.29H254.18C212.19,166.55,208.54,166.65,207,168.42Zm95.75,29.07c5.63,8.44,10.52,15.73,10.63,16.15s-26.36.83-59.08.83-59.49-.2-59.49-.52,4.79-7.6,10.63-16.15L216,182.18h76.27Zm19,83.87.21,50.85H187.49V230.1l67,.21,66.89.31Z" transform="translate(-79.32 -79.85)"/></svg>