<svg id="Layer_1" data-name="Layer 1" xmlns="http://www.w3.org/2000/svg" viewBox="0 0 355.44 355.71"><path d="M308.86,78.77c-.35.14-2.44.76-4.52,1.39-2.29.69-35.65,19.66-84.92,48.36l-81,47.19H122.07c-17.65,0-21.68.62-27.86,4.37a35,35,0,0,0-14.94,21.2c-.56,2.57-.77,33.63-.77,103.88,0,109.17-.21,103.75,3.89,111.81a33.94,33.94,0,0,0,12.72,12.92c8.55,4.59-2.15,4.31,153.29,4.31,124.52,0,141.62-.14,145.23-1a33,33,0,0,0,23.91-25.64c.48-2.5.76-14.45.76-29.95V351.72l2.78-1.25c3.54-1.6,9.38-7.78,11.33-12,1.53-3.27,1.53-3.89,1.53-33.57V274.73l-2.3-4.66A24.22,24.22,0,0,0,420.94,259l-2.64-1.32V231.78c0-27.93-.42-32-3.75-38.49-4.1-8.13-12.3-14.46-21.89-16.89l-4.52-1.11-24-41.9C337.9,87.66,336.72,86,328.38,81.9a39.5,39.5,0,0,0-8-2.78C316.85,78.49,310.39,78.28,308.86,78.77Zm9.86,16.68c3.62,1,9.87,6.32,8.76,7.29-.28.28-28.56,16.82-62.75,36.76l-62.19,36.21H187c-9.24,0-15.35-.28-14.94-.63,1.6-1.53,135.92-79.29,138-79.91C313.37,94.26,314.76,94.26,318.72,95.45ZM340,123.8l3.89,6.74-1.53,1c-.83.56-18.28,10.7-38.71,22.58l-37.1,21.62H250.9c-8.54,0-15.35-.21-15.15-.49.63-.56,100.14-58.51,100.28-58.37S337.83,120,340,123.8Zm20.57,36c4.65,8.06,8.4,14.94,8.4,15.29s-15,.63-34.88.63c-19.18,0-34.67-.21-34.47-.42.7-.63,51.63-30.16,52.12-30.16C351.94,145.13,356,151.73,360.56,159.79Zm30.15,32.66c3.41.91,8,5.07,9.59,8.62,1.18,2.5,1.32,5.14,1.32,29v26.19l-28.63.21c-27.72.28-28.83.28-33.56,1.88-21.82,7.15-35.3,26.47-34.26,49,1.05,20.7,14.94,38.15,35.3,44.26,4.94,1.46,6.67,1.6,33.22,1.88l28,.28-.21,27-.2,27-2.09,3a23.24,23.24,0,0,1-5.56,5.14l-3.33,2.08H248.47c-137,0-141.89-.07-144.26-1.32a18.66,18.66,0,0,1-7.85-7.71l-1.53-2.78-.21-99c-.14-70,0-100.06.56-102.57a15.89,15.89,0,0,1,8.48-11l3.61-1.8H247.64C344.5,191.69,388.91,191.9,390.71,192.45Zm22.73,81.1c4.79,2.36,4.86,3,4.86,31.27,0,21.95-.14,25.64-1.11,27.65-2.15,4.52-1.67,4.45-37,4.45-29.32,0-32.24-.14-36.13-1.32a29,29,0,0,1-14.11-9,31.77,31.77,0,0,1-5.35-36.2c4.17-8.41,13.41-15.56,22.52-17.3,1.94-.35,17.09-.7,33.7-.77C408.23,272.29,411.21,272.43,413.44,273.55Z" transform="translate(-78.5 -78.5)"/><path d="M345.42,292.43A16.16,16.16,0,0,0,337,309.58c2.27,10.51,12.84,15.79,22.52,11.33,9.95-4.67,12-18.26,3.84-26C359,290.85,351,289.68,345.42,292.43Z" transform="translate(-78.5 -78.5)"/></svg>